<svg width="168" height="46" viewBox="0 0 168 46" fill="none" xmlns="http://www.w3.org/2000/svg">
<path d="M38.937 11.3475L32.391 15.1566L19.4686 7.70777L6.5742 15.1847L0 11.404L19.4403 0.117859L38.937 11.3475Z" fill="url(#paint0_linear_633_34164)"/>
<path d="M27.9055 17.7524L19.4972 22.6336L11.0609 17.7806L19.4692 12.8993L27.9055 17.7524Z" fill="url(#paint1_linear_633_34164)"/>
<path d="M19.5249 37.531V45.0927L0.0282428 33.8912L0 11.4037L6.5742 15.1844V30.1104L19.5249 37.531Z" fill="url(#paint2_linear_633_34164)"/>
<path d="M19.4972 32.3252L11.0892 27.4723L11.0609 17.7662L19.4972 22.6192V32.3252Z" fill="url(#paint3_linear_633_34164)"/>
<path d="M38.9937 11.3474V33.835L19.5251 45.1211V37.5312L32.4195 30.0824L32.3913 30.0541V24.8907L27.9051 27.4584L19.4969 32.3396V22.6335L27.9051 17.7523L32.3913 15.1566L38.9372 11.3757L38.9937 11.3474Z" fill="url(#paint4_linear_633_34164)"/>
<path d="M52.7539 24.8594C51.2472 24.8594 49.9539 24.5261 48.8739 23.8594C47.8072 23.1928 47.0006 22.2994 46.4539 21.1794C45.9072 20.0461 45.6339 18.7928 45.6339 17.4194C45.6339 16.0461 45.9072 14.7994 46.4539 13.6794C47.0006 12.5461 47.8072 11.6461 48.8739 10.9794C49.9539 10.3128 51.2472 9.97944 52.7539 9.97944C53.9006 9.97944 54.9206 10.2061 55.8139 10.6594C56.7206 11.1128 57.4539 11.7394 58.0139 12.5394C58.5739 13.3394 58.9339 14.2461 59.0939 15.2594H56.3739C56.1872 14.3928 55.7739 13.6994 55.1339 13.1794C54.4939 12.6461 53.7006 12.3794 52.7539 12.3794C51.3272 12.3794 50.2472 12.8528 49.5139 13.7994C48.7939 14.7461 48.4339 15.9528 48.4339 17.4194C48.4339 18.8861 48.7939 20.0928 49.5139 21.0394C50.2472 21.9861 51.3272 22.4594 52.7539 22.4594C53.7672 22.4594 54.5939 22.1594 55.2339 21.5594C55.8872 20.9594 56.2939 20.1728 56.4539 19.1994H59.1539C59.0206 20.2794 58.6806 21.2528 58.1339 22.1194C57.5872 22.9728 56.8539 23.6461 55.9339 24.1394C55.0139 24.6194 53.9539 24.8594 52.7539 24.8594ZM65.6986 24.8594C64.6186 24.8594 63.6786 24.6261 62.8786 24.1594C62.0919 23.6928 61.4853 23.0461 61.0586 22.2194C60.6453 21.3928 60.4386 20.4594 60.4386 19.4194C60.4386 18.3794 60.6453 17.4461 61.0586 16.6194C61.4853 15.7928 62.0919 15.1461 62.8786 14.6794C63.6786 14.2128 64.6186 13.9794 65.6986 13.9794C66.7786 13.9794 67.7119 14.2128 68.4986 14.6794C69.2986 15.1461 69.9053 15.7928 70.3186 16.6194C70.7453 17.4461 70.9586 18.3794 70.9586 19.4194C70.9586 20.4594 70.7453 21.3928 70.3186 22.2194C69.9053 23.0461 69.2986 23.6928 68.4986 24.1594C67.7119 24.6261 66.7786 24.8594 65.6986 24.8594ZM62.9986 19.4194C62.9986 20.4594 63.2186 21.2794 63.6586 21.8794C64.1119 22.4661 64.7919 22.7594 65.6986 22.7594C66.6053 22.7594 67.2786 22.4661 67.7186 21.8794C68.1719 21.2794 68.3986 20.4594 68.3986 19.4194C68.3986 18.3794 68.1719 17.5661 67.7186 16.9794C67.2786 16.3794 66.6053 16.0794 65.6986 16.0794C64.7919 16.0794 64.1119 16.3794 63.6586 16.9794C63.2186 17.5661 62.9986 18.3794 62.9986 19.4194ZM80.1955 24.6194V23.1794C79.8355 23.7128 79.3755 24.1261 78.8155 24.4194C78.2688 24.7128 77.6288 24.8594 76.8955 24.8594C75.9088 24.8594 75.0621 24.6261 74.3555 24.1594C73.6621 23.6928 73.1355 23.0461 72.7755 22.2194C72.4155 21.3928 72.2355 20.4594 72.2355 19.4194C72.2355 18.3794 72.4155 17.4461 72.7755 16.6194C73.1355 15.7928 73.6621 15.1461 74.3555 14.6794C75.0621 14.2128 75.9088 13.9794 76.8955 13.9794C78.2821 13.9794 79.3488 14.4928 80.0955 15.5194V10.2194H82.6155V24.6194H80.1955ZM74.7955 19.4194C74.7955 20.4594 75.0155 21.2794 75.4555 21.8794C75.9088 22.4661 76.5821 22.7594 77.4755 22.7594C78.3555 22.7594 79.0155 22.4661 79.4555 21.8794C79.9088 21.2794 80.1355 20.4594 80.1355 19.4194C80.1355 18.3794 79.9088 17.5661 79.4555 16.9794C79.0155 16.3794 78.3555 16.0794 77.4755 16.0794C76.5821 16.0794 75.9088 16.3794 75.4555 16.9794C75.0155 17.5661 74.7955 18.3794 74.7955 19.4194ZM89.4848 24.8594C88.4315 24.8594 87.5182 24.6261 86.7448 24.1594C85.9715 23.6794 85.3782 23.0328 84.9648 22.2194C84.5515 21.3928 84.3448 20.4594 84.3448 19.4194C84.3448 18.3794 84.5515 17.4528 84.9648 16.6394C85.3782 15.8128 85.9715 15.1661 86.7448 14.6994C87.5182 14.2194 88.4315 13.9794 89.4848 13.9794C90.5382 13.9794 91.4515 14.2128 92.2248 14.6794C92.9982 15.1461 93.5915 15.8061 94.0048 16.6594C94.4182 17.5128 94.6248 18.4994 94.6248 19.6194V20.2194H86.8448C86.9515 21.0461 87.2315 21.6994 87.6848 22.1794C88.1515 22.6461 88.7515 22.8794 89.4848 22.8794C90.6848 22.8794 91.5115 22.3994 91.9648 21.4394H94.4248C94.0782 22.4928 93.4715 23.3261 92.6048 23.9394C91.7382 24.5528 90.6982 24.8594 89.4848 24.8594ZM92.0848 18.4194C91.9515 17.6461 91.6582 17.0461 91.2048 16.6194C90.7648 16.1794 90.1915 15.9594 89.4848 15.9594C88.7782 15.9594 88.1982 16.1794 87.7448 16.6194C87.3048 17.0461 87.0115 17.6461 86.8648 18.4194H92.0848ZM100.843 10.2194H103.523V22.1994H110.423V24.6194H100.843V10.2194ZM118.395 23.4194C117.968 23.9394 117.482 24.3128 116.935 24.5394C116.402 24.7528 115.788 24.8594 115.095 24.8594C113.948 24.8594 113.028 24.5861 112.335 24.0394C111.642 23.4794 111.295 22.7061 111.295 21.7194C111.295 20.8128 111.615 20.1128 112.255 19.6194C112.908 19.1128 113.922 18.7394 115.295 18.4994L118.315 17.9594V17.3594C118.315 16.8794 118.162 16.5194 117.855 16.2794C117.548 16.0394 117.068 15.9194 116.415 15.9194C115.802 15.9194 115.295 16.0528 114.895 16.3194C114.495 16.5861 114.282 16.9928 114.255 17.5394H111.775C111.788 16.3661 112.228 15.4794 113.095 14.8794C113.962 14.2794 115.062 13.9794 116.395 13.9794C117.848 13.9794 118.942 14.2528 119.675 14.7994C120.408 15.3461 120.775 16.1061 120.775 17.0794V24.6194H118.395V23.4194ZM113.875 21.6394C113.875 22.0661 114.022 22.3994 114.315 22.6394C114.622 22.8794 115.068 22.9994 115.655 22.9994C116.388 22.9994 117.015 22.7994 117.535 22.3994C118.055 21.9861 118.315 21.3794 118.315 20.5794V19.6594L115.755 20.1794C115.102 20.3128 114.622 20.4794 114.315 20.6794C114.022 20.8794 113.875 21.1994 113.875 21.6394ZM125.156 20.4794C125.156 21.1461 125.316 21.6794 125.636 22.0794C125.956 22.4661 126.463 22.6594 127.156 22.6594C127.703 22.6594 128.216 22.4794 128.696 22.1194C129.189 21.7594 129.476 21.1728 129.556 20.3594V14.2194H132.076V24.6194H129.636V23.1994C129.249 23.7061 128.783 24.1128 128.236 24.4194C127.689 24.7128 127.063 24.8594 126.356 24.8594C125.183 24.8594 124.269 24.4928 123.616 23.7594C122.976 23.0128 122.656 22.0194 122.656 20.7794V14.2194H125.156V20.4794ZM141.158 18.3594C141.158 17.6928 140.998 17.1661 140.678 16.7794C140.358 16.3794 139.851 16.1794 139.158 16.1794C138.611 16.1794 138.091 16.3594 137.598 16.7194C137.118 17.0794 136.838 17.6661 136.758 18.4794V24.6194H134.238V14.2194H136.678V15.6394C137.065 15.1328 137.531 14.7328 138.078 14.4394C138.625 14.1328 139.251 13.9794 139.958 13.9794C141.131 13.9794 142.038 14.3528 142.678 15.0994C143.331 15.8328 143.658 16.8194 143.658 18.0594V24.6194H141.158V18.3594ZM150.52 24.8594C149.48 24.8594 148.573 24.6261 147.8 24.1594C147.04 23.6794 146.453 23.0328 146.04 22.2194C145.627 21.3928 145.42 20.4594 145.42 19.4194C145.42 18.3794 145.627 17.4528 146.04 16.6394C146.453 15.8128 147.04 15.1661 147.8 14.6994C148.573 14.2194 149.48 13.9794 150.52 13.9794C151.907 13.9794 153.013 14.3394 153.84 15.0594C154.68 15.7661 155.18 16.7261 155.34 17.9394H152.82C152.7 17.3528 152.44 16.8994 152.04 16.5794C151.64 16.2461 151.133 16.0794 150.52 16.0794C149.693 16.0794 149.06 16.3794 148.62 16.9794C148.193 17.5794 147.98 18.3928 147.98 19.4194C147.98 20.4461 148.193 21.2594 148.62 21.8594C149.06 22.4594 149.693 22.7594 150.52 22.7594C151.147 22.7594 151.66 22.5861 152.06 22.2394C152.46 21.8928 152.713 21.4061 152.82 20.7794H155.34C155.18 22.0061 154.68 22.9928 153.84 23.7394C153 24.4861 151.893 24.8594 150.52 24.8594ZM156.894 10.2194H159.414V15.5394C160.241 14.4994 161.308 13.9794 162.614 13.9794C163.788 13.9794 164.694 14.3528 165.334 15.0994C165.988 15.8328 166.314 16.8194 166.314 18.0594V24.6194H163.814V18.3594C163.814 17.6928 163.654 17.1661 163.334 16.7794C163.014 16.3794 162.508 16.1794 161.814 16.1794C161.268 16.1794 160.748 16.3594 160.254 16.7194C159.774 17.0794 159.494 17.6661 159.414 18.4794V24.6194H156.894V10.2194Z" fill="#220058"/>
<path d="M51.3039 39.7394C50.4239 39.7394 49.7106 39.5294 49.1639 39.1094C48.6172 38.6828 48.3306 38.0461 48.3039 37.1994H49.3139C49.3339 37.7928 49.5272 38.2194 49.8939 38.4794C50.2672 38.7328 50.7406 38.8594 51.3139 38.8594C51.8272 38.8594 52.2372 38.7561 52.5439 38.5494C52.8506 38.3361 53.0039 38.0294 53.0039 37.6294C53.0039 37.4094 52.9506 37.2294 52.8439 37.0894C52.7372 36.9428 52.5439 36.8128 52.2639 36.6994C51.9839 36.5861 51.5739 36.4728 51.0339 36.3594C50.4539 36.2394 49.9839 36.0961 49.6239 35.9294C49.2639 35.7561 48.9906 35.5328 48.8039 35.2594C48.6239 34.9794 48.5339 34.6261 48.5339 34.1994C48.5339 33.8194 48.6406 33.4861 48.8539 33.1994C49.0672 32.9128 49.3639 32.6928 49.7439 32.5394C50.1239 32.3794 50.5539 32.2994 51.0339 32.2994C51.9806 32.2994 52.6872 32.5194 53.1539 32.9594C53.6272 33.3928 53.8706 33.9628 53.8839 34.6694H52.8839C52.8506 34.1694 52.6872 33.7961 52.3939 33.5494C52.1006 33.3028 51.6472 33.1794 51.0339 33.1794C50.5872 33.1794 50.2306 33.2728 49.9639 33.4594C49.6972 33.6394 49.5639 33.8828 49.5639 34.1894C49.5639 34.4228 49.6072 34.6128 49.6939 34.7594C49.7806 34.8994 49.9539 35.0294 50.2139 35.1494C50.4806 35.2628 50.8806 35.3728 51.4139 35.4794C52.1006 35.6194 52.6339 35.7894 53.0139 35.9894C53.3939 36.1828 53.6572 36.4094 53.8039 36.6694C53.9572 36.9294 54.0339 37.2461 54.0339 37.6194C54.0339 38.0461 53.9206 38.4194 53.6939 38.7394C53.4672 39.0594 53.1472 39.3061 52.7339 39.4794C52.3206 39.6528 51.8439 39.7394 51.3039 39.7394ZM57.2125 39.7394C56.6925 39.7394 56.2392 39.6228 55.8525 39.3894C55.4725 39.1561 55.1792 38.8328 54.9725 38.4194C54.7658 38.0061 54.6625 37.5394 54.6625 37.0194C54.6625 36.4994 54.7658 36.0328 54.9725 35.6194C55.1792 35.2061 55.4725 34.8828 55.8525 34.6494C56.2392 34.4161 56.6925 34.2994 57.2125 34.2994C57.7325 34.2994 58.1825 34.4161 58.5625 34.6494C58.9492 34.8828 59.2458 35.2061 59.4525 35.6194C59.6592 36.0328 59.7625 36.4994 59.7625 37.0194C59.7625 37.5394 59.6592 38.0061 59.4525 38.4194C59.2458 38.8328 58.9492 39.1561 58.5625 39.3894C58.1825 39.6228 57.7325 39.7394 57.2125 39.7394ZM55.6425 37.0194C55.6425 37.5928 55.7758 38.0528 56.0425 38.3994C56.3092 38.7394 56.6992 38.9094 57.2125 38.9094C57.7258 38.9094 58.1158 38.7394 58.3825 38.3994C58.6492 38.0528 58.7825 37.5928 58.7825 37.0194C58.7825 36.4461 58.6492 35.9894 58.3825 35.6494C58.1158 35.3028 57.7258 35.1294 57.2125 35.1294C56.6992 35.1294 56.3092 35.3028 56.0425 35.6494C55.7758 35.9894 55.6425 36.4461 55.6425 37.0194ZM61.6628 32.4194V38.2894C61.6628 38.4761 61.7028 38.6128 61.7828 38.6994C61.8695 38.7794 62.0061 38.8194 62.1928 38.8194H62.8928V39.6194H62.0028C61.5495 39.6194 61.2228 39.5228 61.0228 39.3294C60.8228 39.1361 60.7228 38.8261 60.7228 38.3994V32.4194H61.6628ZM64.6999 37.7094C64.6999 38.0694 64.7932 38.3594 64.9799 38.5794C65.1732 38.7928 65.4566 38.8994 65.8299 38.8994C66.0099 38.8994 66.2066 38.8594 66.4199 38.7794C66.6332 38.6928 66.8232 38.5328 66.9899 38.2994C67.1566 38.0661 67.2399 37.7394 67.2399 37.3194V34.4194H68.1799V39.6194H67.2799V38.8694C67.0932 39.1361 66.8599 39.3494 66.5799 39.5094C66.2999 39.6628 65.9766 39.7394 65.6099 39.7394C65.1966 39.7394 64.8499 39.6494 64.5699 39.4694C64.2966 39.2894 64.0932 39.0528 63.9599 38.7594C63.8266 38.4661 63.7599 38.1461 63.7599 37.7994V34.4194H64.6999V37.7094ZM70.8451 32.8194V34.4194H72.2251V35.2194H70.8451V38.2894C70.8451 38.4761 70.8851 38.6128 70.9651 38.6994C71.0518 38.7794 71.1885 38.8194 71.3751 38.8194H72.2251V39.6194H71.1751C70.7218 39.6194 70.3951 39.5228 70.1951 39.3294C69.9951 39.1361 69.8951 38.8261 69.8951 38.3994V35.2194H68.9451V34.4194H69.8951V32.8194H70.8451ZM73.0758 34.4194H74.0258V39.6194H73.0758V34.4194ZM73.0758 32.4194H74.0158V33.4794H73.0758V32.4194ZM77.5152 39.7394C76.9952 39.7394 76.5419 39.6228 76.1552 39.3894C75.7752 39.1561 75.4819 38.8328 75.2752 38.4194C75.0686 38.0061 74.9652 37.5394 74.9652 37.0194C74.9652 36.4994 75.0686 36.0328 75.2752 35.6194C75.4819 35.2061 75.7752 34.8828 76.1552 34.6494C76.5419 34.4161 76.9952 34.2994 77.5152 34.2994C78.0352 34.2994 78.4852 34.4161 78.8652 34.6494C79.2519 34.8828 79.5486 35.2061 79.7552 35.6194C79.9619 36.0328 80.0652 36.4994 80.0652 37.0194C80.0652 37.5394 79.9619 38.0061 79.7552 38.4194C79.5486 38.8328 79.2519 39.1561 78.8652 39.3894C78.4852 39.6228 78.0352 39.7394 77.5152 39.7394ZM75.9452 37.0194C75.9452 37.5928 76.0786 38.0528 76.3452 38.3994C76.6119 38.7394 77.0019 38.9094 77.5152 38.9094C78.0286 38.9094 78.4186 38.7394 78.6852 38.3994C78.9519 38.0528 79.0852 37.5928 79.0852 37.0194C79.0852 36.4461 78.9519 35.9894 78.6852 35.6494C78.4186 35.3028 78.0286 35.1294 77.5152 35.1294C77.0019 35.1294 76.6119 35.3028 76.3452 35.6494C76.0786 35.9894 75.9452 36.4461 75.9452 37.0194ZM84.5055 36.3294C84.5055 35.9694 84.4089 35.6828 84.2155 35.4694C84.0289 35.2494 83.7489 35.1394 83.3755 35.1394C83.1955 35.1394 82.9989 35.1828 82.7855 35.2694C82.5722 35.3494 82.3822 35.5061 82.2155 35.7394C82.0489 35.9728 81.9655 36.2994 81.9655 36.7194V39.6194H81.0255V34.4194H81.9255V35.1694C82.1122 34.9028 82.3455 34.6928 82.6255 34.5394C82.9055 34.3794 83.2289 34.2994 83.5955 34.2994C84.0089 34.2994 84.3522 34.3894 84.6255 34.5694C84.9055 34.7494 85.1122 34.9861 85.2455 35.2794C85.3789 35.5728 85.4455 35.8928 85.4455 36.2394V39.6194H84.5055V36.3294ZM88.5308 39.7394C87.8641 39.7394 87.3274 39.5894 86.9208 39.2894C86.5208 38.9894 86.3041 38.5328 86.2708 37.9194H87.2108C87.2508 38.2928 87.3774 38.5628 87.5908 38.7294C87.8108 38.8894 88.1274 38.9694 88.5408 38.9694C88.9074 38.9694 89.1941 38.9061 89.4008 38.7794C89.6074 38.6461 89.7108 38.4628 89.7108 38.2294C89.7108 38.0694 89.6808 37.9428 89.6208 37.8494C89.5608 37.7561 89.4374 37.6761 89.2508 37.6094C89.0708 37.5361 88.7941 37.4694 88.4208 37.4094C87.9008 37.3228 87.4941 37.2094 87.2008 37.0694C86.9141 36.9228 86.7108 36.7494 86.5908 36.5494C86.4774 36.3428 86.4208 36.0928 86.4208 35.7994C86.4208 35.3461 86.6008 34.9828 86.9608 34.7094C87.3274 34.4361 87.8041 34.2994 88.3908 34.2994C89.0641 34.2994 89.5908 34.4528 89.9708 34.7594C90.3508 35.0594 90.5474 35.4828 90.5608 36.0294H89.6308C89.6174 35.6761 89.5008 35.4294 89.2808 35.2894C89.0608 35.1428 88.7641 35.0694 88.3908 35.0694C88.0908 35.0694 87.8441 35.1328 87.6508 35.2594C87.4574 35.3861 87.3608 35.5594 87.3608 35.7794C87.3608 35.9328 87.3974 36.0561 87.4708 36.1494C87.5441 36.2428 87.6741 36.3228 87.8608 36.3894C88.0474 36.4561 88.3241 36.5194 88.6908 36.5794C89.1974 36.6661 89.5941 36.7794 89.8808 36.9194C90.1674 37.0528 90.3674 37.2194 90.4808 37.4194C90.6008 37.6194 90.6608 37.8694 90.6608 38.1694C90.6608 38.6628 90.4641 39.0494 90.0708 39.3294C89.6774 39.6028 89.1641 39.7394 88.5308 39.7394ZM94.5962 41.6194C94.0829 40.7661 93.6996 39.9361 93.4462 39.1294C93.1996 38.3228 93.0762 37.4861 93.0762 36.6194C93.0762 35.7528 93.1996 34.9161 93.4462 34.1094C93.6996 33.3028 94.0829 32.4728 94.5962 31.6194H95.4662C94.9596 32.4928 94.5962 33.3228 94.3762 34.1094C94.1562 34.8961 94.0462 35.7328 94.0462 36.6194C94.0462 37.5061 94.1562 38.3428 94.3762 39.1294C94.5962 39.9161 94.9596 40.7461 95.4662 41.6194H94.5962ZM96.6129 32.4194H99.5329C100.086 32.4194 100.55 32.5194 100.923 32.7194C101.303 32.9128 101.586 33.1794 101.773 33.5194C101.96 33.8594 102.053 34.2394 102.053 34.6594C102.053 35.0794 101.96 35.4594 101.773 35.7994C101.586 36.1394 101.303 36.4094 100.923 36.6094C100.55 36.8028 100.086 36.8994 99.5329 36.8994H97.6129V39.6194H96.6129V32.4194ZM99.5229 36.0094C100.03 36.0094 100.406 35.8894 100.653 35.6494C100.906 35.4028 101.033 35.0728 101.033 34.6594C101.033 34.2461 100.906 33.9194 100.653 33.6794C100.406 33.4328 100.03 33.3094 99.5229 33.3094H97.6129V36.0094H99.5229ZM102.468 34.4194H103.498L105.038 38.6094L106.558 34.4194H107.578L105.528 39.6194H104.528L102.468 34.4194ZM109.732 32.8194V34.4194H111.112V35.2194H109.732V38.2894C109.732 38.4761 109.772 38.6128 109.852 38.6994C109.939 38.7794 110.075 38.8194 110.262 38.8194H111.112V39.6194H110.062C109.609 39.6194 109.282 39.5228 109.082 39.3294C108.882 39.1361 108.782 38.8261 108.782 38.3994V35.2194H107.832V34.4194H108.782V32.8194H109.732ZM111.493 41.6194C111.999 40.7461 112.363 39.9161 112.583 39.1294C112.803 38.3428 112.913 37.5061 112.913 36.6194C112.913 35.7328 112.803 34.8961 112.583 34.1094C112.363 33.3228 111.999 32.4928 111.493 31.6194H112.363C112.876 32.4728 113.256 33.3028 113.503 34.1094C113.756 34.9161 113.883 35.7528 113.883 36.6194C113.883 37.4861 113.756 38.3228 113.503 39.1294C113.256 39.9361 112.876 40.7661 112.363 41.6194H111.493ZM117.043 32.4194H118.043V38.7194H121.623V39.6194H117.043V32.4194ZM123.902 32.8194V34.4194H125.282V35.2194H123.902V38.2894C123.902 38.4761 123.942 38.6128 124.022 38.6994C124.108 38.7794 124.245 38.8194 124.432 38.8194H125.282V39.6194H124.232C123.778 39.6194 123.452 39.5228 123.252 39.3294C123.052 39.1361 122.952 38.8261 122.952 38.3994V35.2194H122.002V34.4194H122.952V32.8194H123.902ZM130.052 39.6194V38.8294C129.866 39.1228 129.626 39.3494 129.332 39.5094C129.039 39.6628 128.699 39.7394 128.312 39.7394C127.806 39.7394 127.372 39.6228 127.012 39.3894C126.652 39.1561 126.379 38.8361 126.192 38.4294C126.006 38.0161 125.912 37.5461 125.912 37.0194C125.912 36.4928 126.006 36.0261 126.192 35.6194C126.379 35.2061 126.652 34.8828 127.012 34.6494C127.372 34.4161 127.806 34.2994 128.312 34.2994C129.052 34.2994 129.619 34.5828 130.012 35.1494V32.4194H130.952V39.6194H130.052ZM126.892 37.0194C126.892 37.5928 127.026 38.0528 127.292 38.3994C127.559 38.7394 127.949 38.9094 128.462 38.9094C128.969 38.9094 129.356 38.7394 129.622 38.3994C129.889 38.0528 130.022 37.5928 130.022 37.0194C130.022 36.4461 129.889 35.9894 129.622 35.6494C129.356 35.3028 128.969 35.1294 128.462 35.1294C127.949 35.1294 127.559 35.3028 127.292 35.6494C127.026 35.9894 126.892 36.4461 126.892 37.0194ZM132.009 38.2994H133.119V39.6194H132.009V38.2994Z" fill="#220058"/>
<defs>
<linearGradient id="paint0_linear_633_34164" x1="1.59125e-07" y1="11.7276" x2="20.6532" y2="18.4052" gradientUnits="userSpaceOnUse">
<stop stop-color="#FFE493"/>
<stop offset="1" stop-color="#E4A700"/>
</linearGradient>
<linearGradient id="paint1_linear_633_34164" x1="13.787" y1="19.5891" x2="28.209" y2="19.1172" gradientUnits="userSpaceOnUse">
<stop stop-color="#FFE493"/>
<stop offset="1" stop-color="#E4A700"/>
</linearGradient>
<linearGradient id="paint2_linear_633_34164" x1="-9.58039" y1="34.6117" x2="12.9117" y2="15.9888" gradientUnits="userSpaceOnUse">
<stop stop-color="#FF15DF"/>
<stop offset="1" stop-color="#FF8800"/>
</linearGradient>
<linearGradient id="paint3_linear_633_34164" x1="-0.894012" y1="32.3252" x2="14.0196" y2="16.9055" gradientUnits="userSpaceOnUse">
<stop stop-color="#FF15DF"/>
<stop offset="1" stop-color="#FF8800"/>
</linearGradient>
<linearGradient id="paint4_linear_633_34164" x1="19.4969" y1="24.0965" x2="37.5047" y2="33.0999" gradientUnits="userSpaceOnUse">
<stop stop-color="#6702FF"/>
<stop offset="1" stop-color="#7BCEFF"/>
</linearGradient>
</defs>
</svg>
