<svg width="31" height="36" viewBox="0 0 31 36" fill="none" xmlns="http://www.w3.org/2000/svg">
<path d="M30.9621 9.37152L25.8038 12.3731L15.6209 6.50343L5.46016 12.3953L0.279686 9.41603L15.5987 0.522583L30.9621 9.37152Z" fill="url(#paint0_linear_192_2)"/>
<path d="M22.2688 14.4186L15.6431 18.265L8.99522 14.4409L15.6209 10.5944L22.2688 14.4186Z" fill="url(#paint1_linear_192_2)"/>
<path d="M15.6653 30.0044V35.963L0.301941 27.1361L0.279686 9.41602L5.46016 12.3952V24.1569L15.6653 30.0044Z" fill="url(#paint2_linear_192_2)"/>
<path d="M15.6431 25.9022L9.01748 22.0781L8.99522 14.4297L15.6431 18.2539V25.9022Z" fill="url(#paint3_linear_192_2)"/>
<path d="M31.0066 9.37152V27.0918L15.6653 35.9852V30.0044L25.8261 24.1347L25.8038 24.1124V20.0436L22.2688 22.067L15.6431 25.9133V18.265L22.2688 14.4186L25.8038 12.3731L30.9621 9.39378L31.0066 9.37152Z" fill="url(#paint4_linear_192_2)"/>
<defs>
<linearGradient id="paint0_linear_192_2" x1="0.279686" y1="9.67108" x2="16.5544" y2="14.933" gradientUnits="userSpaceOnUse">
<stop stop-color="#FFE493"/>
<stop offset="1" stop-color="#E4A700"/>
</linearGradient>
<linearGradient id="paint1_linear_192_2" x1="11.1434" y1="15.866" x2="22.5079" y2="15.4941" gradientUnits="userSpaceOnUse">
<stop stop-color="#FFE493"/>
<stop offset="1" stop-color="#E4A700"/>
</linearGradient>
<linearGradient id="paint2_linear_192_2" x1="-7.26967" y1="27.7039" x2="10.4541" y2="13.0291" gradientUnits="userSpaceOnUse">
<stop stop-color="#FF15DF"/>
<stop offset="1" stop-color="#FF8800"/>
</linearGradient>
<linearGradient id="paint3_linear_192_2" x1="-0.425263" y1="25.9022" x2="11.3267" y2="13.7515" gradientUnits="userSpaceOnUse">
<stop stop-color="#FF15DF"/>
<stop offset="1" stop-color="#FF8800"/>
</linearGradient>
<linearGradient id="paint4_linear_192_2" x1="15.6431" y1="19.4178" x2="29.8332" y2="26.5125" gradientUnits="userSpaceOnUse">
<stop stop-color="#6702FF"/>
<stop offset="1" stop-color="#7BCEFF"/>
</linearGradient>
</defs>
</svg>
