<svg width="212" height="34" viewBox="0 0 212 34" fill="none" xmlns="http://www.w3.org/2000/svg">
<path d="M28.6568 0.880524H3.5821C1.61195 0.880524 0 2.49247 0 4.46263V29.5374C0 31.5075 1.61195 33.1195 3.5821 33.1195H28.6568C30.627 33.1195 32.2389 31.5075 32.2389 29.5374V4.46263C32.2389 2.49247 30.627 0.880524 28.6568 0.880524ZM28.6568 29.5374H3.5821V4.46263H28.6568V29.5374ZM7.16421 13.4179H10.7463V25.9553H7.16421V13.4179ZM14.3284 8.04473H17.9105V25.9553H14.3284V8.04473ZM21.4926 18.791H25.0747V25.9553H21.4926V18.791Z" fill="#1D51B0"/>
<path d="M42.4682 28.8805V5.75775H51.1392C52.9156 5.75775 54.4059 6.08893 55.6102 6.7513C56.8221 7.41367 57.7366 8.32444 58.3538 9.48358C58.9785 10.6352 59.2909 11.9449 59.2909 13.4127C59.2909 14.8955 58.9785 16.2127 58.3538 17.3643C57.729 18.5159 56.807 19.4229 55.5876 20.0853C54.3683 20.7401 52.8666 21.0676 51.0828 21.0676H45.3359V17.624H50.5182C51.557 17.624 52.4075 17.4433 53.0699 17.082C53.7322 16.7207 54.2215 16.224 54.5376 15.5917C54.8613 14.9594 55.0231 14.2331 55.0231 13.4127C55.0231 12.5922 54.8613 11.8696 54.5376 11.2449C54.2215 10.6202 53.7285 10.1347 53.0586 9.78843C52.3962 9.43466 51.5419 9.25778 50.4957 9.25778H46.6569V28.8805H42.4682ZM61.1589 28.8805V11.5384H65.1218V14.4288H65.3025C65.6186 13.4277 66.1605 12.6562 66.9283 12.1143C67.7036 11.5648 68.588 11.2901 69.5815 11.2901C69.8073 11.2901 70.0595 11.3013 70.338 11.3239C70.624 11.339 70.8611 11.3653 71.0493 11.403V15.1627C70.8762 15.1024 70.6014 15.0498 70.2251 15.0046C69.8563 14.9519 69.4987 14.9256 69.1525 14.9256C68.4073 14.9256 67.7374 15.0874 67.1428 15.4111C66.5557 15.7272 66.0928 16.1675 65.7541 16.732C65.4154 17.2966 65.246 17.9476 65.246 18.6853V28.8805H61.1589ZM72.1749 28.8805V11.5384H76.2621V28.8805H72.1749ZM74.2298 9.07713C73.5825 9.07713 73.0255 8.86261 72.5588 8.43358C72.0922 7.99701 71.8588 7.47389 71.8588 6.86421C71.8588 6.247 72.0922 5.72387 72.5588 5.29484C73.0255 4.85828 73.5825 4.64 74.2298 4.64C74.8846 4.64 75.4416 4.85828 75.9008 5.29484C76.3675 5.72387 76.6008 6.247 76.6008 6.86421C76.6008 7.47389 76.3675 7.99701 75.9008 8.43358C75.4416 8.86261 74.8846 9.07713 74.2298 9.07713ZM78.8752 28.8805V11.5384H82.7817V14.4852H82.985C83.3463 13.4917 83.9446 12.7164 84.7801 12.1594C85.6156 11.5949 86.6129 11.3126 87.7721 11.3126C88.9463 11.3126 89.9361 11.5987 90.7415 12.1707C91.5544 12.7352 92.1264 13.5067 92.4576 14.4852H92.6383C93.0221 13.5218 93.6695 12.754 94.5802 12.182C95.4985 11.6024 96.5861 11.3126 97.8431 11.3126C99.4389 11.3126 100.741 11.8169 101.75 12.8255C102.758 13.8342 103.263 15.3057 103.263 17.2401V28.8805H99.1641V17.8724C99.1641 16.796 98.8781 16.0094 98.3061 15.5127C97.734 15.0084 97.034 14.7562 96.206 14.7562C95.22 14.7562 94.4485 15.0648 93.8915 15.682C93.342 16.2917 93.0673 17.0858 93.0673 18.0643V28.8805H89.0592V17.703C89.0592 16.8073 88.7882 16.0922 88.2463 15.5578C87.7119 15.0234 87.0119 14.7562 86.1463 14.7562C85.5592 14.7562 85.0248 14.9067 84.543 15.2078C84.0613 15.5014 83.6774 15.9191 83.3914 16.4611C83.1054 16.9955 82.9624 17.6202 82.9624 18.3353V28.8805H78.8752ZM113.497 29.2192C111.758 29.2192 110.256 28.8579 108.992 28.1354C107.735 27.4052 106.768 26.3741 106.09 25.0418C105.413 23.702 105.074 22.1251 105.074 20.3111C105.074 18.5272 105.413 16.9616 106.09 15.6143C106.775 14.2594 107.731 13.2057 108.958 12.453C110.185 11.6927 111.626 11.3126 113.282 11.3126C114.351 11.3126 115.36 11.4858 116.308 11.832C117.264 12.1707 118.107 12.6976 118.837 13.4127C119.575 14.1277 120.154 15.0385 120.576 16.1449C120.997 17.2439 121.208 18.5536 121.208 20.074V21.3272H106.993V18.5724H117.29C117.283 17.7896 117.113 17.0933 116.782 16.4836C116.451 15.8664 115.988 15.3809 115.394 15.0272C114.806 14.6734 114.121 14.4965 113.339 14.4965C112.503 14.4965 111.769 14.6998 111.137 15.1062C110.505 15.5051 110.012 16.032 109.658 16.6869C109.312 17.3342 109.135 18.0455 109.127 18.8208V21.2256C109.127 22.2342 109.312 23.0998 109.681 23.8224C110.049 24.5375 110.565 25.0869 111.227 25.4708C111.89 25.8472 112.665 26.0353 113.553 26.0353C114.148 26.0353 114.686 25.9525 115.168 25.7869C115.649 25.6138 116.067 25.3617 116.421 25.0305C116.775 24.6993 117.042 24.2891 117.223 23.7998L121.039 24.2289C120.798 25.2375 120.339 26.1181 119.661 26.8708C118.991 27.616 118.133 28.1956 117.087 28.6096C116.041 29.016 114.844 29.2192 113.497 29.2192ZM123.257 28.8805V5.75775H132.108C133.779 5.75775 135.168 6.02119 136.275 6.54808C137.389 7.06744 138.22 7.77873 138.77 8.68197C139.327 9.5852 139.605 10.6089 139.605 11.753C139.605 12.6938 139.425 13.4992 139.063 14.1691C138.702 14.8315 138.217 15.3697 137.607 15.7836C136.997 16.1976 136.316 16.4949 135.563 16.6756V16.9014C136.384 16.9466 137.17 17.1987 137.923 17.6578C138.683 18.1095 139.304 18.7493 139.786 19.5772C140.268 20.4052 140.509 21.4063 140.509 22.5805C140.509 23.7773 140.219 24.8536 139.639 25.8095C139.06 26.7579 138.186 27.5069 137.02 28.0563C135.853 28.6058 134.385 28.8805 132.617 28.8805H123.257ZM127.445 25.3805H131.95C133.471 25.3805 134.566 25.0907 135.236 24.5111C135.913 23.924 136.252 23.1713 136.252 22.253C136.252 21.5681 136.083 20.9509 135.744 20.4014C135.405 19.8444 134.924 19.4079 134.299 19.0917C133.674 18.7681 132.929 18.6062 132.063 18.6062H127.445V25.3805ZM127.445 15.5917H131.589C132.312 15.5917 132.963 15.46 133.542 15.1965C134.122 14.9256 134.577 14.5455 134.908 14.0562C135.247 13.5594 135.417 12.9723 135.417 12.2949C135.417 11.3992 135.1 10.6616 134.468 10.082C133.843 9.5024 132.914 9.21261 131.679 9.21261H127.445V15.5917ZM149.947 29.2192C148.253 29.2192 146.785 28.8467 145.543 28.1015C144.302 27.3563 143.338 26.3138 142.653 24.974C141.976 23.6342 141.637 22.0686 141.637 20.2772C141.637 18.4858 141.976 16.9164 142.653 15.5691C143.338 14.2218 144.302 13.1756 145.543 12.4304C146.785 11.6852 148.253 11.3126 149.947 11.3126C151.64 11.3126 153.108 11.6852 154.35 12.4304C155.592 13.1756 156.552 14.2218 157.229 15.5691C157.914 16.9164 158.256 18.4858 158.256 20.2772C158.256 22.0686 157.914 23.6342 157.229 24.974C156.552 26.3138 155.592 27.3563 154.35 28.1015C153.108 28.8467 151.64 29.2192 149.947 29.2192ZM149.969 25.945C150.888 25.945 151.655 25.6929 152.273 25.1886C152.89 24.6767 153.349 23.9918 153.65 23.1337C153.959 22.2756 154.113 21.3197 154.113 20.2659C154.113 19.2046 153.959 18.2449 153.65 17.3869C153.349 16.5213 152.89 15.8326 152.273 15.3207C151.655 14.8089 150.888 14.553 149.969 14.553C149.028 14.553 148.246 14.8089 147.621 15.3207C147.004 15.8326 146.541 16.5213 146.232 17.3869C145.931 18.2449 145.781 19.2046 145.781 20.2659C145.781 21.3197 145.931 22.2756 146.232 23.1337C146.541 23.9918 147.004 24.6767 147.621 25.1886C148.246 25.6929 149.028 25.945 149.969 25.945ZM167.7 29.2192C166.007 29.2192 164.539 28.8467 163.297 28.1015C162.055 27.3563 161.092 26.3138 160.407 24.974C159.729 23.6342 159.391 22.0686 159.391 20.2772C159.391 18.4858 159.729 16.9164 160.407 15.5691C161.092 14.2218 162.055 13.1756 163.297 12.4304C164.539 11.6852 166.007 11.3126 167.7 11.3126C169.394 11.3126 170.862 11.6852 172.104 12.4304C173.346 13.1756 174.305 14.2218 174.983 15.5691C175.668 16.9164 176.01 18.4858 176.01 20.2772C176.01 22.0686 175.668 23.6342 174.983 24.974C174.305 26.3138 173.346 27.3563 172.104 28.1015C170.862 28.8467 169.394 29.2192 167.7 29.2192ZM167.723 25.945C168.641 25.945 169.409 25.6929 170.026 25.1886C170.643 24.6767 171.103 23.9918 171.404 23.1337C171.712 22.2756 171.867 21.3197 171.867 20.2659C171.867 19.2046 171.712 18.2449 171.404 17.3869C171.103 16.5213 170.643 15.8326 170.026 15.3207C169.409 14.8089 168.641 14.553 167.723 14.553C166.782 14.553 165.999 14.8089 165.375 15.3207C164.757 15.8326 164.294 16.5213 163.986 17.3869C163.685 18.2449 163.534 19.2046 163.534 20.2659C163.534 21.3197 163.685 22.2756 163.986 23.1337C164.294 23.9918 164.757 24.6767 165.375 25.1886C165.999 25.6929 166.782 25.945 167.723 25.945ZM181.615 23.4385L181.604 18.5046H182.259L188.491 11.5384H193.267L185.601 20.074H184.754L181.615 23.4385ZM177.889 28.8805V5.75775H181.977V28.8805H177.889ZM188.773 28.8805L183.128 20.9885L185.883 18.1095L193.662 28.8805H188.773ZM208.108 16.1224L204.382 16.5288C204.276 16.1525 204.092 15.7987 203.829 15.4675C203.573 15.1363 203.226 14.8691 202.79 14.6659C202.353 14.4627 201.819 14.361 201.187 14.361C200.336 14.361 199.621 14.5455 199.041 14.9143C198.469 15.2831 198.187 15.7611 198.195 16.3482C198.187 16.8525 198.372 17.2627 198.748 17.5788C199.132 17.8949 199.764 18.1546 200.645 18.3579L203.603 18.9901C205.244 19.3439 206.463 19.9046 207.261 20.6724C208.066 21.4401 208.473 22.445 208.48 23.6869C208.473 24.7783 208.153 25.7418 207.521 26.5773C206.896 27.4052 206.026 28.0526 204.912 28.5192C203.798 28.9859 202.519 29.2192 201.074 29.2192C198.951 29.2192 197.242 28.7751 195.948 27.887C194.653 26.9913 193.882 25.7456 193.633 24.1498L197.619 23.766C197.799 24.5488 198.183 25.1396 198.77 25.5386C199.358 25.9375 200.122 26.137 201.062 26.137C202.033 26.137 202.812 25.9375 203.4 25.5386C203.994 25.1396 204.291 24.6466 204.291 24.0595C204.291 23.5627 204.1 23.1525 203.716 22.8289C203.339 22.5052 202.752 22.2568 201.954 22.0837L198.996 21.4627C197.333 21.1165 196.102 20.5331 195.304 19.7127C194.506 18.8847 194.111 17.8385 194.119 16.574C194.111 15.5051 194.401 14.5793 194.988 13.7965C195.583 13.0062 196.407 12.3965 197.461 11.9675C198.522 11.5309 199.745 11.3126 201.13 11.3126C203.162 11.3126 204.762 11.7454 205.929 12.611C207.103 13.4766 207.829 14.6471 208.108 16.1224Z" fill="#1D51B0"/>
</svg>
